<svg width="40" height="32" viewBox="0 0 40 32" fill="none" xmlns="http://www.w3.org/2000/svg">
<path d="M32.44 3.33471C39.409 10.4489 39.409 22.0293 32.44 29.1441L34.0886 30.827C41.9705 22.7816 41.9705 9.69725 34.0886 1.65178L32.44 3.33471ZM27.2189 8.66456C31.3076 12.8391 31.3076 19.6391 27.2189 23.8136L28.8675 25.4972C33.8691 20.3914 33.8691 12.0874 28.8675 6.98162L27.2189 8.66456ZM21.7225 14.2754C22.7835 15.3585 22.7835 17.1203 21.7225 18.2027L23.3711 19.8863C25.3392 17.8773 25.3392 14.6009 23.3711 12.5925L21.7225 14.2754ZM18.8299 0L7.14236 9.16234V21.9902L18.8299 31.1532V0ZM6.09244 21.9769H1.29861C0.581778 21.9769 0 21.383 0 20.6512V10.4615C0 9.72906 0.581778 9.13583 1.29861 9.13583H6.09244V21.9769Z" fill="#FF267E"/>
</svg>
